<?xml version="1.0" encoding="utf-8"?>
<svg xmlns="http://www.w3.org/2000/svg" xmlns:xlink="http://www.w3.org/1999/xlink" style="margin: auto; background: none; display: block; z-index: 1; position: relative; shape-rendering: auto;" width="1920" height="1080" preserveAspectRatio="xMidYMid" viewBox="0 0 1920 1080">
<g transform="translate(960,540) scale(1,1) translate(-960,-540)"><g transform="translate(245.40238382677842,54.359961535759226) scale(100)" opacity="0.4">
  <path d="M8.3376 0 C8.3376 1.9872 8.402600423854132 3.6485322688783155 7.234553570498529 5.256210840100211 S4.466399601482291 7.315450239040577 2.576460092300562 7.929528810262473 S-0.8734140613167993 9.118806362539678 -2.763353570498529 8.504727791317782 S-5.5772132389449585 6.508396890735621 -6.745260092300561 4.900718319513725 S-8.9424 1.9872000000000012 -8.9424 1.0951281536695291e-15 S-7.913306945656165 -3.2930397482918274 -6.745260092300563 -4.900718319513723 S-4.65329307968026 -7.890649220095884 -2.763353570498531 -8.50472779131778 S0.6865205831188306 -8.54360738148437 2.57646009230056 -7.9295288102624735 S6.066506717142925 -6.863889411322109 7.234553570498528 -5.256210840100214 S8.3376 -1.987200000000002 8.3376 -2.0421230305141945e-15" fill="#376888" stroke-width="0">
    <animateTransform attributeName="transform" type="rotate" dur="10s" repeatCount="indefinite" values="0;72"></animateTransform>
  </path>
</g><g transform="translate(102.48286059213399,-42.768046157088975) scale(100)" opacity="0.4">
  <path d="M10.005120000000002 0 C10.005120000000002 2.38464 10.08312050862496 4.37823872265398 8.681464284598237 6.3074530081202544 S5.35967952177875 8.778540286848694 3.091752110760675 9.515434572314968 S-1.04809687358016 10.942567635047613 -3.3160242845982353 10.205673349581339 S-6.6926558867339505 7.810076268882746 -8.094312110760674 5.880861983416471 S-10.73088 2.3846400000000014 -10.73088 1.3141537844034352e-15 S-9.4959683347874 -3.9516476979501935 -8.094312110760677 -5.880861983416469 S-5.583951695616312 -9.468779064115061 -3.3160242845982375 -10.205673349581337 S0.8238246997425973 -10.252328857781244 3.0917521107606727 -9.51543457231497 S7.279808060571511 -8.236667293586532 8.681464284598235 -6.307453008120257 S10.005120000000002 -2.3846400000000028 10.005120000000002 -2.4505476366170335e-15" fill="#376888" stroke-width="0">
    <animateTransform attributeName="transform" type="rotate" dur="5s" repeatCount="indefinite" values="0;72"></animateTransform>
  </path>
</g><g transform="translate(-240.5239951710123,-275.87526461992456) scale(100)" opacity="0.4">
  <path d="M14.007168000000002 0 C14.007168000000002 3.338496 14.116368712074943 6.129534211715571 12.15404999843753 8.830434211368356 S7.50355133049025 12.28995640158817 4.328452955064945 13.321608401240955 S-1.4673356230122234 15.319594689066658 -4.642433998437529 14.287942689413875 S-9.369718241427531 10.934106776435843 -11.332036955064943 8.233206776783058 S-15.023232 3.338496000000002 -15.023232 1.839815298164809e-15 S-13.294355668702359 -5.532306777130271 -11.332036955064947 -8.233206776783057 S-7.8175323738628375 -13.256290689761087 -4.642433998437532 -14.287942689413873 S1.153354579639636 -14.35326040089374 4.328452955064941 -13.321608401240956 S10.191731284800115 -11.531334211021143 12.154049998437529 -8.83043421136836 S14.007168000000002 -3.3384960000000037 14.007168000000002 -3.4307666912638472e-15" fill="#376888" stroke-width="0">
    <animateTransform attributeName="transform" type="rotate" dur="3.3333333333333335s" repeatCount="indefinite" values="0;72"></animateTransform>
  </path>
</g></g>
</svg>