<?xml version="1.0" encoding="utf-8"?>
<svg xmlns="http://www.w3.org/2000/svg" xmlns:xlink="http://www.w3.org/1999/xlink" style="margin: auto; background: none; display: block; z-index: 1; position: relative; shape-rendering: auto;" width="1863" height="937" preserveAspectRatio="xMidYMid" viewBox="0 0 1863 937">
<g transform="translate(931.5,468.5) scale(1,1) translate(-931.5,-468.5)"><g transform="translate(253.26060276576277,-24.269766259395055) scale(100)" opacity="0.4">
  <path d="M8.131995000000002 0 C8.131995000000002 1.9282050000000002 8.442236191805648 2.6476279862958263 7.478133691805648 4.3175025 S5.735872013704175 6.078411753448037 4.065997500000002 7.042514253448037 S1.9282050000000006 8.635005000000001 5.287415616935696e-16 8.635005000000001 S-2.3961229862958255 8.006616753448037 -4.065997499999999 7.042514253448038 S-6.514031191805645 5.987377013704177 -7.478133691805646 4.317502500000003 S-8.131995000000002 1.928205000000001 -8.131995000000002 9.958821647432283e-16 S-8.442236191805648 -2.647627986295824 -7.478133691805649 -4.317502499999998 S-5.735872013704178 -6.078411753448035 -4.065997500000004 -7.042514253448036 S-1.9282050000000017 -8.635005000000001 -1.5862246850807087e-15 -8.635005000000001 S2.396122986295821 -8.00661675344804 4.0659974999999955 -7.042514253448041 S6.514031191805644 -5.987377013704178 7.478133691805645 -4.317502500000004 S8.131995000000002 -1.9282050000000022 8.131995000000002 -1.9917643294864565e-15" fill="#420457" stroke-width="0">
    <animateTransform attributeName="transform" type="rotate" dur="20s" repeatCount="indefinite" values="0;60"></animateTransform>
  </path>
</g><g transform="translate(117.61272331891541,-122.82371951127402) scale(100)" opacity="0.4">
  <path d="M9.758394000000001 0 C9.758394000000001 2.3138460000000003 10.13068343016678 3.177153583554992 8.973760430166779 5.1810030000000005 S6.88304641644501 7.294094104137644 4.879197000000001 8.451017104137645 S2.3138460000000007 10.362006000000003 6.344898740322836e-16 10.362006000000003 S-2.87534758355499 9.607940104137644 -4.879196999999999 8.451017104137645 S-7.8168374301667765 7.184852416445013 -8.973760430166777 5.181003000000005 S-9.758394000000001 2.3138460000000016 -9.758394000000001 1.1950585976918738e-15 S-10.13068343016678 -3.17715358355499 -8.97376043016678 -5.181002999999999 S-6.883046416445013 -7.29409410413764 -4.879197000000005 -8.451017104137641 S-2.313846000000002 -10.362006000000003 -1.903469622096851e-15 -10.362006000000003 S2.875347583554985 -9.607940104137647 4.879196999999994 -8.451017104137648 S7.816837430166775 -7.184852416445014 8.973760430166775 -5.181003000000006 S9.758394000000001 -2.3138460000000025 9.758394000000001 -2.3901171953837477e-15" fill="#51237f" stroke-width="0">
    <animateTransform attributeName="transform" type="rotate" dur="10s" repeatCount="indefinite" values="0;60"></animateTransform>
  </path>
</g><g transform="translate(-207.94218735351842,-359.3532073157836) scale(100)" opacity="0.4">
  <path d="M13.6617516 0 C13.6617516 3.2393844 14.18295680223349 4.4480150169769885 12.56326460223349 7.2534042 S9.636264983023013 10.211731745792699 6.830875800000002 11.8314239457927 S3.239384400000001 14.506808400000002 8.88285823645197e-16 14.506808400000002 S-4.025486616976986 13.451116145792701 -6.830875799999998 11.831423945792702 S-10.943572402233485 10.058793383023016 -12.563264602233486 7.253404200000006 S-13.6617516 3.239384400000002 -13.6617516 1.6730820367686232e-15 S-14.182956802233491 -4.448015016976985 -12.563264602233492 -7.253404199999997 S-9.636264983023018 -10.211731745792695 -6.8308758000000065 -11.831423945792697 S-3.2393844000000027 -14.506808400000002 -2.6648574709355907e-15 -14.506808400000002 S4.025486616976979 -13.451116145792705 6.830875799999991 -11.831423945792707 S10.943572402233483 -10.05879338302302 12.563264602233485 -7.253404200000007 S13.6617516 -3.2393844000000036 13.6617516 -3.3461640735372464e-15" fill="#5a3faa" stroke-width="0">
    <animateTransform attributeName="transform" type="rotate" dur="6.666666666666666s" repeatCount="indefinite" values="0;60"></animateTransform>
  </path>
</g></g>
</svg>